<svg xmlns="http://www.w3.org/2000/svg" viewBox="0 0 512 512"><path fill="#fff" d="M0 85.331h512v341.337H0z"/><path fill="#d80027" d="M318.33 255.994c0 15.583-27.906 54.539-62.33 54.539s-62.33-38.957-62.33-54.539c0-34.424 27.906-62.33 62.33-62.33s62.33 27.906 62.33 62.33z"/><path fill="#0052b4" d="M318.33 255.994c0 34.424-27.906 62.33-62.33 62.33s-62.33-27.906-62.33-62.33"/><path d="m322.114 311.096 16.528-16.528 11.018 11.018-16.527 16.528zM294.566 338.63l16.528-16.527 11.018 11.018-16.528 16.528zM355.17 344.132l16.527-16.528 11.018 11.018-16.527 16.528zM327.621 371.69l16.528-16.529 11.018 11.018-16.527 16.528zM338.641 327.614l16.528-16.528 11.018 11.018-16.527 16.528zM311.095 355.16l16.527-16.529 11.019 11.018-16.528 16.528zM355.177 200.897l-44.073-44.075 11.019-11.018 44.073 44.075zM311.099 189.881l-16.528-16.528 11.018-11.017 16.527 16.528zM338.633 217.431l-16.527-16.528 11.017-11.017 16.528 16.528zM344.133 156.824l-16.527-16.528 11.018-11.018 16.528 16.529zM371.694 184.375l-16.528-16.528 11.019-11.018 16.527 16.528zM140.31 327.61l44.073 44.076-11.018 11.018-44.074-44.075zM184.368 338.635l16.527 16.528-11.017 11.017-16.528-16.528zM156.832 311.086l16.527 16.529-11.018 11.018-16.528-16.529zM173.363 294.563l44.073 44.075-11.018 11.018-44.073-44.075zM184.385 140.287l-44.073 44.074-11.018-11.018 44.073-44.074zM200.894 156.822l-44.073 44.075-11.018-11.018 44.073-44.075zM217.424 173.35l-44.073 44.076-11.017-11.018 44.073-44.074z"/></svg>